<svg width="80" height="auto" viewBox="0 0 110 98" fill="none" xmlns="http://www.w3.org/2000/svg">
    <path
        d="M39.0967 10.1498C46.3349 0.187339 60.2787 -2.02116 70.2411 5.21698L78.5256 11.236C81.6974 13.5405 82.4006 17.98 80.0961 21.1518L72.1135 32.1389C68.5807 29.7264 64.3094 28.3156 59.7085 28.3156C47.5451 28.3156 37.6847 38.176 37.6847 50.3394C37.6847 57.4267 41.0324 63.7321 46.2328 67.7606L32.926 86.0759C28.1547 92.643 18.963 94.0989 12.3959 89.3275L10.2591 87.7751C0.296706 80.537 -1.91178 66.5931 5.32635 56.6307L39.0967 10.1498ZM59.7085 29.3156C64.0897 29.3156 68.1578 30.6557 71.5254 32.9484L69.082 36.3114C66.4448 34.5562 63.2782 33.5334 59.8727 33.5334C50.6811 33.5334 43.2299 40.9847 43.2299 50.1763C43.2299 55.4606 45.6926 60.1696 49.533 63.2184L46.8209 66.9512C41.8702 63.1048 38.6847 57.0941 38.6847 50.3394C38.6847 38.7283 48.0974 29.3156 59.7085 29.3156ZM69.8976 36.8902L72.3385 33.5306C72.8684 33.9294 73.3789 34.3527 73.8683 34.7989L71.4104 38.1818C70.9326 37.7221 70.4275 37.2907 69.8976 36.8902ZM59.8727 34.5334C63.0585 34.5334 66.0219 35.4858 68.4936 37.1213L50.1214 62.4085C46.5306 59.5423 44.2299 55.1279 44.2299 50.1763C44.2299 41.537 51.2334 34.5334 59.8727 34.5334ZM50.9224 63.0072L69.3096 37.6994C69.8393 38.1007 70.3427 38.5349 70.8167 38.9991L52.6226 64.0411C52.0327 63.732 51.465 63.3864 50.9224 63.0072ZM47.6249 67.5458L50.3345 63.8165C50.8765 64.1961 51.4421 64.5443 52.0288 64.8584L49.3022 68.6112C48.7254 68.2821 48.1658 67.9264 47.6249 67.5458ZM50.1903 69.0902L52.9371 65.3095C55.0484 66.2788 57.3975 66.8191 59.8727 66.8191C66.4685 66.8191 72.168 62.9823 74.8613 57.4188L78.3938 59.9854C74.8978 66.7439 67.8426 71.3632 59.7085 71.3632C56.2826 71.3632 53.0481 70.5438 50.1903 69.0902ZM78.8384 59.0723L75.278 56.4856C76.0758 54.5398 76.5156 52.4094 76.5156 50.1763C76.5156 45.8867 74.8927 41.9761 72.2275 39.0251L74.7093 35.6092C78.4346 39.4025 80.7324 44.6026 80.7324 50.3394C80.7324 53.4551 80.0546 56.4126 78.8384 59.0723ZM71.6259 39.8531C74.0473 42.6077 75.5156 46.2205 75.5156 50.1763C75.5156 52.1886 75.1356 54.1122 74.4435 55.8792L70.7217 53.1752C67.5498 50.8707 66.8467 46.4312 69.1512 43.2593L71.6259 39.8531ZM81.7324 50.3394C81.7324 44.2695 79.2768 38.7731 75.3049 34.7894L83.2205 23.8945C85.0599 21.3629 88.2593 20.4039 91.0887 21.2916C91.7486 21.5158 92.3864 21.8417 92.9799 22.2728L99.5844 27.0713C109.547 34.3094 111.755 48.2533 104.517 58.2157L96.7744 68.8728C95.5157 69.8278 93.7323 69.8933 92.3881 68.9167L79.6632 59.6716C80.9907 56.838 81.7324 53.6753 81.7324 50.3394ZM91.8003 69.7257C92.9368 70.5515 94.3202 70.7914 95.5902 70.5026L80.845 90.7977C76.0737 97.3648 66.882 98.8206 60.3149 94.0493L47.5626 84.7843C44.3908 82.4798 43.6876 78.0403 45.9921 74.8684L49.5953 69.9091C52.6238 71.4773 56.0627 72.3632 59.7085 72.3632C68.175 72.3632 75.5257 67.5858 79.2119 60.5797L91.8003 69.7257ZM66.9069 46.0817C66.413 49.0171 67.5622 52.1157 70.1339 53.9842L74.0383 56.8209C71.54 62.1379 66.1363 65.8191 59.8727 65.8191C57.6177 65.8191 55.4742 65.342 53.5375 64.4831L66.9069 46.0817Z"
        stroke="#F5FFF8"/>
</svg>
