<svg width="180" height="121" viewBox="0 0 180 121" fill="none" xmlns="http://www.w3.org/2000/svg">
<rect y="96" width="180" height="40" rx="8" fill="#D9D9D9"/>
<rect x="8" y="104" width="69" height="6" rx="2" fill="#B4B4B4"/>
<rect x="8" y="116" width="145" height="4" rx="1" fill="#B4B4B4"/>
<circle cx="170" cy="106" r="6" fill="white"/>
<rect width="180" height="40" rx="8" fill="#EEFDF2"/>
<rect x="8" y="8" width="69" height="6" rx="2" fill="#B4B4B4"/>
<rect x="8" y="20" width="145" height="4" rx="1" fill="#B4B4B4"/>
<rect x="8" y="29" width="145" height="4" rx="1" fill="#B4B4B4"/>
<circle cx="170" cy="10" r="6" fill="#48D670"/>
<path d="M172.667 8L169 11.6667L167.333 10" stroke="white" stroke-linecap="round" stroke-linejoin="round"/>
<rect y="48" width="180" height="40" rx="8" fill="#FEF3F2"/>
<rect x="8" y="56" width="69" height="6" rx="2" fill="#B4B4B4"/>
<rect x="8" y="68" width="145" height="4" rx="1" fill="#B4B4B4"/>
<rect x="8" y="77" width="145" height="4" rx="1" fill="#B4B4B4"/>
<circle cx="170" cy="58" r="6" fill="#F04438"/>
<path d="M171.667 56.3334L168.333 59.6667M168.333 56.3334L171.667 59.6667" stroke="white" stroke-linecap="round" stroke-linejoin="round"/>
</svg>
