<svg width="180" height="126" viewBox="0 0 180 126" fill="none" xmlns="http://www.w3.org/2000/svg">
<path fill-rule="evenodd" clip-rule="evenodd" d="M12 0C5.37258 0 0 5.37258 0 12V141H180V20L156 0H12Z" fill="#EBEBEB"/>
<path d="M156 0L180 20H156V0Z" fill="#C8C8C8"/>
<path d="M8 21C8 19.8954 8.89543 19 10 19H75C76.1046 19 77 19.8954 77 21V27C77 28.1046 76.1046 29 75 29H10C8.89543 29 8 28.1046 8 27V21Z" fill="#B4B4B4"/>
<path d="M36 38C36 36.8954 36.8954 36 38 36H152C153.105 36 154 36.8954 154 38C154 39.1046 153.105 40 152 40H38C36.8954 40 36 39.1046 36 38Z" fill="#B4B4B4"/>
<path d="M9 74C9 72.8954 9.89543 72 11 72H91C92.1046 72 93 72.8954 93 74C93 75.1046 92.1046 76 91 76H11C9.89543 76 9 75.1046 9 74Z" fill="#B4B4B4"/>
<path d="M36 54C36 52.8954 36.8954 52 38 52H152C153.105 52 154 52.8954 154 54C154 55.1046 153.105 56 152 56H38C36.8954 56 36 55.1046 36 54Z" fill="#B4B4B4"/>
<path d="M9 90C9 88.8954 9.89543 88 11 88H107C108.105 88 109 88.8954 109 90C109 91.1046 108.105 92 107 92H11C9.89543 92 9 91.1046 9 90Z" fill="#B4B4B4"/>
<path d="M36 46C36 44.8954 36.8954 44 38 44H152C153.105 44 154 44.8954 154 46C154 47.1046 153.105 48 152 48H38C36.8954 48 36 47.1046 36 46Z" fill="#B4B4B4"/>
<path d="M9 82C9 80.8954 9.89543 80 11 80H107C108.105 80 109 80.8954 109 82C109 83.1046 108.105 84 107 84H11C9.89543 84 9 83.1046 9 82Z" fill="#B4B4B4"/>
<path d="M9 98C9 96.8954 9.89543 96 11 96H107C108.105 96 109 96.8954 109 98C109 99.1046 108.105 100 107 100H11C9.89543 100 9 99.1046 9 98Z" fill="#B4B4B4"/>
</svg>
