<svg width="1832" height="344" viewBox="0 0 1832 344" fill="none" xmlns="http://www.w3.org/2000/svg">
<g filter="url(#filter0_b_13_67547)">
<path d="M150.462 48.5411C169.94 21.7326 207.462 15.7896 234.271 35.2671L270.357 61.4854C279.293 67.9779 281.274 80.4853 274.781 89.4214L124.319 296.515C111.334 314.387 86.3194 318.349 68.4471 305.364L48.5411 290.902C21.7326 271.424 15.7897 233.902 35.2672 207.094L150.462 48.5411Z" fill="url(#paint0_linear_13_67547)"/>
</g>
<path d="M281.399 95.8713C287.891 86.9351 300.398 84.9541 309.335 91.4466L340.27 113.922C367.078 133.4 373.021 170.922 353.544 197.73L271.254 310.993C258.269 328.865 233.254 332.827 215.382 319.842L168.266 285.611C159.33 279.118 157.349 266.611 163.842 257.675L281.399 95.8713Z" fill="url(#paint1_linear_13_67547)"/>
<path opacity="0.6" d="M281.879 96.029C288.372 87.0928 300.879 85.1118 309.815 91.6043L340.75 114.08C367.559 133.557 373.502 171.08 354.024 197.888L318.757 246.429L239.281 188.686C230.345 182.194 228.364 169.686 234.856 160.75L281.879 96.029Z" fill="url(#paint2_linear_13_67547)"/>
<g opacity="0.69" filter="url(#filter1_f_13_67547)">
<circle cx="209.086" cy="180.691" r="66" fill="url(#paint3_linear_13_67547)"/>
<circle cx="209.086" cy="180.691" r="64" stroke="white" stroke-width="4"/>
</g>
<g filter="url(#filter2_f_13_67547)">
<circle cx="209.586" cy="180.191" r="49.5" fill="url(#paint4_radial_13_67547)"/>
<circle cx="209.586" cy="180.191" r="47.5" stroke="white" stroke-width="4"/>
</g>
<path d="M522.159 130.091V153.955H444.773V130.091H522.159ZM464.119 261V117.733C464.119 108.926 465.938 101.597 469.574 95.7443C473.267 89.892 478.21 85.517 484.403 82.6193C490.597 79.7216 497.472 78.2727 505.028 78.2727C510.369 78.2727 515.114 78.6989 519.261 79.5511C523.409 80.4034 526.477 81.1705 528.466 81.8523L522.33 105.716C521.023 105.318 519.375 104.92 517.386 104.523C515.398 104.068 513.182 103.841 510.739 103.841C505 103.841 500.938 105.233 498.551 108.017C496.222 110.744 495.057 114.665 495.057 119.778V261H464.119ZM537.921 261V130.091H568.773V261H537.921ZM553.432 111.511C548.546 111.511 544.341 109.892 540.819 106.653C537.296 103.358 535.535 99.4091 535.535 94.8068C535.535 90.1477 537.296 86.1989 540.819 82.9602C544.341 79.6648 548.546 78.017 553.432 78.017C558.376 78.017 562.58 79.6648 566.046 82.9602C569.569 86.1989 571.33 90.1477 571.33 94.8068C571.33 99.4091 569.569 103.358 566.046 106.653C562.58 109.892 558.376 111.511 553.432 111.511ZM657.468 130.091V153.955H582.213V130.091H657.468ZM600.792 98.7273H631.645V221.625C631.645 225.773 632.27 228.955 633.52 231.17C634.826 233.33 636.531 234.807 638.633 235.602C640.736 236.398 643.065 236.795 645.622 236.795C647.554 236.795 649.315 236.653 650.906 236.369C652.554 236.085 653.804 235.83 654.656 235.602L659.855 259.722C658.207 260.29 655.849 260.915 652.781 261.597C649.77 262.278 646.076 262.676 641.701 262.79C633.974 263.017 627.014 261.852 620.821 259.295C614.628 256.682 609.713 252.648 606.076 247.193C602.497 241.739 600.736 234.92 600.792 226.739V98.7273ZM705.723 184.295V261H674.871V130.091H704.36V152.335H705.894C708.905 145.006 713.706 139.182 720.297 134.864C726.945 130.545 735.155 128.386 744.928 128.386C753.962 128.386 761.831 130.318 768.536 134.182C775.297 138.045 780.524 143.642 784.218 150.972C787.968 158.301 789.814 167.193 789.757 177.648V261H758.905V182.42C758.905 173.67 756.632 166.824 752.087 161.881C747.598 156.937 741.377 154.466 733.422 154.466C728.024 154.466 723.223 155.659 719.019 158.045C714.871 160.375 711.604 163.756 709.218 168.188C706.888 172.619 705.723 177.989 705.723 184.295ZM870.676 263.557C857.551 263.557 846.215 260.83 836.67 255.375C827.181 249.864 819.88 242.08 814.766 232.023C809.653 221.909 807.096 210.006 807.096 196.312C807.096 182.847 809.653 171.028 814.766 160.858C819.937 150.631 827.153 142.676 836.414 136.994C845.676 131.256 856.556 128.386 869.056 128.386C877.124 128.386 884.738 129.693 891.897 132.307C899.113 134.864 905.477 138.841 910.988 144.239C916.556 149.636 920.931 156.511 924.113 164.864C927.295 173.159 928.886 183.045 928.886 194.523V203.983H821.585V183.188H899.312C899.255 177.278 897.977 172.023 895.477 167.42C892.977 162.761 889.482 159.097 884.994 156.426C880.562 153.756 875.391 152.42 869.482 152.42C863.176 152.42 857.636 153.955 852.863 157.023C848.09 160.034 844.369 164.011 841.698 168.955C839.085 173.841 837.749 179.21 837.693 185.062V203.216C837.693 210.83 839.085 217.364 841.869 222.818C844.653 228.216 848.545 232.364 853.545 235.261C858.545 238.102 864.397 239.523 871.102 239.523C875.59 239.523 879.653 238.898 883.289 237.648C886.926 236.341 890.079 234.438 892.749 231.938C895.42 229.438 897.437 226.341 898.801 222.648L927.607 225.886C925.789 233.5 922.323 240.148 917.21 245.83C912.153 251.455 905.676 255.83 897.778 258.955C889.88 262.023 880.846 263.557 870.676 263.557ZM1050.05 164.693L1021.93 167.761C1021.13 164.92 1019.74 162.25 1017.75 159.75C1015.82 157.25 1013.21 155.233 1009.91 153.699C1006.62 152.165 1002.58 151.398 997.808 151.398C991.388 151.398 985.99 152.79 981.615 155.574C977.297 158.358 975.166 161.966 975.223 166.398C975.166 170.205 976.558 173.301 979.399 175.688C982.297 178.074 987.07 180.034 993.717 181.568L1016.05 186.341C1028.43 189.011 1037.64 193.244 1043.66 199.04C1049.74 204.835 1052.81 212.42 1052.87 221.795C1052.81 230.034 1050.39 237.307 1045.62 243.614C1040.9 249.864 1034.34 254.75 1025.93 258.273C1017.52 261.795 1007.87 263.557 996.956 263.557C980.933 263.557 968.036 260.205 958.263 253.5C948.49 246.739 942.666 237.335 940.791 225.29L970.876 222.392C972.24 228.301 975.138 232.761 979.57 235.773C984.001 238.784 989.768 240.29 996.871 240.29C1004.2 240.29 1010.08 238.784 1014.51 235.773C1019 232.761 1021.25 229.04 1021.25 224.608C1021.25 220.858 1019.8 217.761 1016.9 215.318C1014.06 212.875 1009.63 211 1003.6 209.693L981.274 205.006C968.717 202.392 959.428 197.989 953.405 191.795C947.382 185.545 944.399 177.648 944.456 168.102C944.399 160.034 946.587 153.045 951.018 147.136C955.507 141.17 961.729 136.568 969.683 133.33C977.695 130.034 986.928 128.386 997.382 128.386C1012.72 128.386 1024.8 131.653 1033.6 138.188C1042.47 144.722 1047.95 153.557 1050.05 164.693ZM1173.37 164.693L1145.25 167.761C1144.45 164.92 1143.06 162.25 1141.07 159.75C1139.14 157.25 1136.52 155.233 1133.23 153.699C1129.93 152.165 1125.9 151.398 1121.13 151.398C1114.71 151.398 1109.31 152.79 1104.93 155.574C1100.62 158.358 1098.48 161.966 1098.54 166.398C1098.48 170.205 1099.88 173.301 1102.72 175.688C1105.62 178.074 1110.39 180.034 1117.04 181.568L1139.37 186.341C1151.75 189.011 1160.96 193.244 1166.98 199.04C1173.06 204.835 1176.13 212.42 1176.18 221.795C1176.13 230.034 1173.71 237.307 1168.94 243.614C1164.22 249.864 1157.66 254.75 1149.25 258.273C1140.84 261.795 1131.18 263.557 1120.27 263.557C1104.25 263.557 1091.35 260.205 1081.58 253.5C1071.81 246.739 1065.98 237.335 1064.11 225.29L1094.2 222.392C1095.56 228.301 1098.46 232.761 1102.89 235.773C1107.32 238.784 1113.09 240.29 1120.19 240.29C1127.52 240.29 1133.4 238.784 1137.83 235.773C1142.32 232.761 1144.56 229.04 1144.56 224.608C1144.56 220.858 1143.12 217.761 1140.22 215.318C1137.38 212.875 1132.95 211 1126.92 209.693L1104.59 205.006C1092.04 202.392 1082.75 197.989 1076.72 191.795C1070.7 185.545 1067.72 177.648 1067.77 168.102C1067.72 160.034 1069.91 153.045 1074.34 147.136C1078.83 141.17 1085.05 136.568 1093 133.33C1101.01 130.034 1110.25 128.386 1120.7 128.386C1136.04 128.386 1148.12 131.653 1156.92 138.188C1165.79 144.722 1171.27 153.557 1173.37 164.693ZM1434.96 262.875C1429.79 262.875 1425.36 261.057 1421.67 257.42C1417.97 253.784 1416.15 249.352 1416.21 244.125C1416.15 239.011 1417.97 234.636 1421.67 231C1425.36 227.364 1429.79 225.545 1434.96 225.545C1439.96 225.545 1444.31 227.364 1448 231C1451.75 234.636 1453.65 239.011 1453.71 244.125C1453.65 247.591 1452.75 250.744 1450.98 253.585C1449.28 256.426 1447.01 258.699 1444.17 260.403C1441.38 262.051 1438.31 262.875 1434.96 262.875ZM1477.16 261V130.091H1506.65V152.335H1508.19C1510.91 144.835 1515.43 138.983 1521.74 134.778C1528.05 130.517 1535.57 128.386 1544.32 128.386C1553.19 128.386 1560.66 130.545 1566.74 134.864C1572.88 139.125 1577.19 144.949 1579.69 152.335H1581.06C1583.95 145.062 1588.84 139.267 1595.72 134.949C1602.65 130.574 1610.86 128.386 1620.35 128.386C1632.39 128.386 1642.22 132.193 1649.84 139.807C1657.45 147.42 1661.26 158.528 1661.26 173.131V261H1630.32V177.903C1630.32 169.778 1628.16 163.841 1623.84 160.091C1619.52 156.284 1614.24 154.381 1607.99 154.381C1600.55 154.381 1594.72 156.71 1590.52 161.369C1586.37 165.972 1584.3 171.966 1584.3 179.352V261H1554.04V176.625C1554.04 169.864 1551.99 164.466 1547.9 160.432C1543.87 156.398 1538.59 154.381 1532.05 154.381C1527.62 154.381 1523.59 155.517 1519.95 157.79C1516.31 160.006 1513.41 163.159 1511.26 167.25C1509.1 171.284 1508.02 176 1508.02 181.398V261H1477.16ZM1742.11 263.557C1728.98 263.557 1717.65 260.83 1708.1 255.375C1698.62 249.864 1691.31 242.08 1686.2 232.023C1681.09 221.909 1678.53 210.006 1678.53 196.312C1678.53 182.847 1681.09 171.028 1686.2 160.858C1691.37 150.631 1698.59 142.676 1707.85 136.994C1717.11 131.256 1727.99 128.386 1740.49 128.386C1748.56 128.386 1756.17 129.693 1763.33 132.307C1770.55 134.864 1776.91 138.841 1782.42 144.239C1787.99 149.636 1792.37 156.511 1795.55 164.864C1798.73 173.159 1800.32 183.045 1800.32 194.523V203.983H1693.02V183.188H1770.75C1770.69 177.278 1769.41 172.023 1766.91 167.42C1764.41 162.761 1760.92 159.097 1756.43 156.426C1752 153.756 1746.83 152.42 1740.92 152.42C1734.61 152.42 1729.07 153.955 1724.3 157.023C1719.52 160.034 1715.8 164.011 1713.13 168.955C1710.52 173.841 1709.18 179.21 1709.13 185.062V203.216C1709.13 210.83 1710.52 217.364 1713.3 222.818C1716.09 228.216 1719.98 232.364 1724.98 235.261C1729.98 238.102 1735.83 239.523 1742.54 239.523C1747.02 239.523 1751.09 238.898 1754.72 237.648C1758.36 236.341 1761.51 234.438 1764.18 231.938C1766.85 229.438 1768.87 226.341 1770.23 222.648L1799.04 225.886C1797.22 233.5 1793.76 240.148 1788.64 245.83C1783.59 251.455 1777.11 255.83 1769.21 258.955C1761.31 262.023 1752.28 263.557 1742.11 263.557Z" fill="white"/>
<path d="M1217 261H1183.25L1244.7 86.4545H1283.74L1345.27 261H1311.52L1264.9 122.25H1263.54L1217 261ZM1218.11 192.562H1310.16V217.96H1218.11V192.562ZM1391.48 86.4545V261H1359.86V86.4545H1391.48Z" fill="url(#paint5_linear_13_67547)"/>
<path d="M1669.93 80V39.2727H1684.17C1687.01 39.2727 1689.35 39.7633 1691.19 40.7443C1693.03 41.7121 1694.41 43.018 1695.31 44.6619C1696.21 46.2926 1696.66 48.1023 1696.66 50.0909C1696.66 51.8409 1696.35 53.286 1695.72 54.4261C1695.11 55.5663 1694.31 56.4678 1693.3 57.1307C1692.3 57.7936 1691.22 58.2841 1690.06 58.6023V59C1691.3 59.0795 1692.56 59.517 1693.82 60.3125C1695.07 61.108 1696.13 62.2481 1696.98 63.733C1697.83 65.2178 1698.25 67.0341 1698.25 69.1818C1698.25 71.2235 1697.79 73.0597 1696.86 74.6903C1695.93 76.321 1694.46 77.6136 1692.46 78.5682C1690.46 79.5227 1687.86 80 1684.65 80H1669.93ZM1674.86 75.625H1684.65C1687.87 75.625 1690.16 75.0019 1691.51 73.7557C1692.87 72.4962 1693.56 70.9716 1693.56 69.1818C1693.56 67.803 1693.21 66.5303 1692.5 65.3636C1691.8 64.1837 1690.8 63.2424 1689.5 62.5398C1688.2 61.8239 1686.66 61.4659 1684.89 61.4659H1674.86V75.625ZM1674.86 57.1705H1684.01C1685.5 57.1705 1686.84 56.8788 1688.03 56.2955C1689.23 55.7121 1690.19 54.8902 1690.89 53.8295C1691.61 52.7689 1691.97 51.5227 1691.97 50.0909C1691.97 48.3011 1691.34 46.7831 1690.1 45.5369C1688.85 44.2775 1686.88 43.6477 1684.17 43.6477H1674.86V57.1705ZM1704.39 80V39.2727H1728.97V43.6477H1709.33V57.4091H1727.7V61.7841H1709.33V75.625H1729.29V80H1704.39ZM1733.68 43.6477V39.2727H1764.22V43.6477H1751.41V80H1746.48V43.6477H1733.68ZM1766.78 80H1761.61L1776.57 39.2727H1781.66L1796.61 80H1791.44L1779.27 45.7159H1778.96L1766.78 80ZM1768.69 64.0909H1789.53V68.4659H1768.69V64.0909Z" fill="#56E97F"/>
<defs>
<filter id="filter0_b_13_67547" x="19.8037" y="19.8037" width="262.799" height="297.203" filterUnits="userSpaceOnUse" color-interpolation-filters="sRGB">
<feFlood flood-opacity="0" result="BackgroundImageFix"/>
<feGaussianBlur in="BackgroundImageFix" stdDeviation="2"/>
<feComposite in2="SourceAlpha" operator="in" result="effect1_backgroundBlur_13_67547"/>
<feBlend mode="normal" in="SourceGraphic" in2="effect1_backgroundBlur_13_67547" result="shape"/>
</filter>
<filter id="filter1_f_13_67547" x="127.086" y="98.6909" width="164" height="164" filterUnits="userSpaceOnUse" color-interpolation-filters="sRGB">
<feFlood flood-opacity="0" result="BackgroundImageFix"/>
<feBlend mode="normal" in="SourceGraphic" in2="BackgroundImageFix" result="shape"/>
<feGaussianBlur stdDeviation="8" result="effect1_foregroundBlur_13_67547"/>
</filter>
<filter id="filter2_f_13_67547" x="159.086" y="129.691" width="101" height="101" filterUnits="userSpaceOnUse" color-interpolation-filters="sRGB">
<feFlood flood-opacity="0" result="BackgroundImageFix"/>
<feBlend mode="normal" in="SourceGraphic" in2="BackgroundImageFix" result="shape"/>
<feGaussianBlur stdDeviation="0.5" result="effect1_foregroundBlur_13_67547"/>
</filter>
<linearGradient id="paint0_linear_13_67547" x1="236.133" y1="36.6205" x2="50.4039" y2="292.255" gradientUnits="userSpaceOnUse">
<stop stop-color="#145594"/>
<stop offset="1" stop-color="#56E97F"/>
</linearGradient>
<linearGradient id="paint1_linear_13_67547" x1="340.983" y1="114.44" x2="199.914" y2="308.604" gradientUnits="userSpaceOnUse">
<stop stop-color="#56E97F"/>
<stop offset="1" stop-color="#145594"/>
</linearGradient>
<linearGradient id="paint2_linear_13_67547" x1="341.463" y1="114.598" x2="270.929" y2="211.68" gradientUnits="userSpaceOnUse">
<stop stop-color="#145594"/>
<stop offset="1" stop-color="#56E97F"/>
</linearGradient>
<linearGradient id="paint3_linear_13_67547" x1="209.086" y1="114.691" x2="209.086" y2="246.691" gradientUnits="userSpaceOnUse">
<stop stop-color="#56E97F"/>
<stop offset="1" stop-color="#145594"/>
</linearGradient>
<radialGradient id="paint4_radial_13_67547" cx="0" cy="0" r="1" gradientUnits="userSpaceOnUse" gradientTransform="translate(209.586 180.191) rotate(90) scale(41.3091)">
<stop stop-color="white"/>
<stop offset="1" stop-color="#D4ECE4"/>
</radialGradient>
<linearGradient id="paint5_linear_13_67547" x1="1136" y1="29" x2="1136" y2="343" gradientUnits="userSpaceOnUse">
<stop stop-color="#145594"/>
<stop offset="1" stop-color="#56E97F"/>
</linearGradient>
</defs>
</svg>
